<?xml version="1.0" encoding="UTF-8"?>
<svg width="72px" height="72px" viewBox="0 0 72 72" version="1.1" xmlns="http://www.w3.org/2000/svg" xmlns:xlink="http://www.w3.org/1999/xlink">
    <title>Untitled 61</title>
    <g id="Page-1" stroke="none" stroke-width="1" fill="none" fill-rule="evenodd">
        <g id="noun_X_2262986" fill="#000000" fill-rule="nonzero">
            <g id="a">
                <path d="M70.25,10.25 C71.4191406,9.07604167 72.002474,7.659375 72.0000078,5.99999216 C72.002474,4.340625 71.4191406,2.92395833 70.25,1.75 C69.0760417,0.580859375 67.659375,-0.00247395833 65.9999922,-7.83594271e-06 C64.340625,-0.00247395833 62.9239583,0.580859375 61.75,1.75 L35.9999922,27.4999922 L10.25,1.75 C9.07604167,0.580859375 7.659375,-0.00247395833 5.99999216,-7.83594271e-06 C4.340625,-0.00247395833 2.92395833,0.580859375 1.75,1.75 C0.580859375,2.92395833 -0.00247395833,4.340625 -7.83594271e-06,5.99999216 C-0.00247395833,7.659375 0.580859375,9.07604167 1.75,10.25 L27.4999922,35.9999922 L1.75,61.75 C0.580859375,62.9239583 -0.00247395833,64.340625 -7.83594271e-06,65.9999922 C-0.00247395833,67.659375 0.580859375,69.0760417 1.75,70.25 C2.92395833,71.4191406 4.340625,72.002474 5.99999216,72.0000078 C7.659375,72.002474 9.07604167,71.4191406 10.25,70.25 L35.9999922,44.4999922 L61.75,70.25 C62.9239583,71.4191406 64.340625,72.002474 65.9999922,72.0000078 C67.659375,72.002474 69.0760417,71.4191406 70.25,70.25 C71.4191406,69.0760417 72.002474,67.659375 72.0000078,65.9999922 C72.002474,64.340625 71.4191406,62.9239583 70.25,61.75 L44.4999922,35.9999922 L70.25,10.25 Z" id="Path"></path>
            </g>
        </g>
    </g>
</svg>